<svg width="25" height="25" viewBox="0 0 25 25" fill="none" xmlns="http://www.w3.org/2000/svg">
<path fill-rule="evenodd" clip-rule="evenodd" d="M12.4091 0.600006C5.88708 0.600006 0.599976 5.88711 0.599976 12.4091C0.599976 18.9311 5.88708 24.2182 12.4091 24.2182C18.931 24.2182 24.2182 18.9311 24.2182 12.4091C24.2182 5.88711 18.931 0.600006 12.4091 0.600006ZM2.39998 12.4091C2.39998 6.88123 6.8812 2.40001 12.4091 2.40001C17.9369 2.40001 22.4182 6.88123 22.4182 12.4091C22.4182 17.937 17.9369 22.4182 12.4091 22.4182C6.8812 22.4182 2.39998 17.937 2.39998 12.4091ZM13.2696 6.08431C13.3667 6.05854 13.4694 6.04879 13.5741 6.05756C13.6048 6.06006 13.635 6.06409 13.6647 6.06959L16.9207 6.61225C17.411 6.69397 17.7422 7.15767 17.6605 7.64796C17.5787 8.13826 17.115 8.46948 16.6247 8.38776L14.4 8.01697V12.9455L14.4 12.9546V15.3188C14.4 17.0531 12.7978 18.2182 11.1437 18.2182H9.31093C7.65677 18.2182 6.05457 17.0531 6.05457 15.3188V14.9539C6.05457 13.2197 7.65677 12.0546 9.31093 12.0546H12.6V6.97152C12.5994 6.94131 12.6004 6.91083 12.603 6.88018C12.6115 6.77638 12.6376 6.67756 12.6783 6.58673C12.7884 6.3413 13.0051 6.15413 13.2696 6.08431ZM9.31093 13.8546H12.6V14.5909L12.6 14.5999V15.3188C12.6 15.793 12.0923 16.4182 11.1437 16.4182H9.31093C8.36229 16.4182 7.85457 15.793 7.85457 15.3188V14.9539C7.85457 14.4797 8.36229 13.8546 9.31093 13.8546Z" fill="black"/>
</svg>
