<svg width="24" height="24" viewBox="0 0 24 24" fill="none" xmlns="http://www.w3.org/2000/svg">
<path fill-rule="evenodd" clip-rule="evenodd" d="M0 12C0 5.37321 5.37321 0 12 0C18.6268 0 24 5.37321 24 12C24 18.6268 18.6268 24 12 24C5.37321 24 0 18.6268 0 12ZM2.03571 12C2.03571 17.5018 6.49821 21.9643 12 21.9643C17.5018 21.9643 21.9643 17.5018 21.9643 12C21.9643 6.49821 17.5018 2.03571 12 2.03571C6.49821 2.03571 2.03571 6.49821 2.03571 12ZM12 5.67857C13.125 5.67857 14.1857 6.06429 14.9893 6.76875C15.825 7.5 16.2857 8.48304 16.283 9.53571C16.283 11.0839 15.2625 12.4768 13.6822 13.0848C13.4396 13.1785 13.2309 13.3431 13.0832 13.5572C12.9356 13.7712 12.8559 14.0248 12.8545 14.2848V14.8929C12.8545 15.0107 12.758 15.1071 12.6402 15.1071H11.3545C11.2366 15.1071 11.1402 15.0107 11.1402 14.8929V14.317C11.1402 13.6982 11.3223 13.0875 11.6732 12.5786C12.0188 12.0804 12.5009 11.7 13.0688 11.483C13.9822 11.1321 14.5714 10.3687 14.5714 9.53571C14.5714 8.35446 13.417 7.39286 12 7.39286C10.583 7.39286 9.42858 8.35446 9.42858 9.53571V9.73929C9.42858 9.85714 9.33215 9.95357 9.21429 9.95357H7.92858C7.81072 9.95357 7.71429 9.85714 7.71429 9.73929V9.53571C7.71429 8.48304 8.17501 7.5 9.01072 6.76875C9.81429 6.06696 10.875 5.67857 12 5.67857ZM11.2424 18.6505C11.0415 18.4495 10.9286 18.177 10.9286 17.8929C10.9286 17.6087 11.0415 17.3362 11.2424 17.1352C11.4433 16.9343 11.7158 16.8214 12 16.8214C12.2842 16.8214 12.5567 16.9343 12.7576 17.1352C12.9586 17.3362 13.0714 17.6087 13.0714 17.8929C13.0714 18.177 12.9586 18.4495 12.7576 18.6505C12.5567 18.8514 12.2842 18.9643 12 18.9643C11.7158 18.9643 11.4433 18.8514 11.2424 18.6505Z" fill="black"/>
</svg>
